<svg width="14" height="8" viewBox="0 0 14 8" fill="none" xmlns="http://www.w3.org/2000/svg">
<path d="M6.99862 7.09891C6.79836 7.09936 6.60429 7.01799 6.45009 6.86891L1.30767 1.86891C1.13264 1.69917 1.02257 1.45526 1.00167 1.19083C0.980778 0.926406 1.05077 0.663125 1.19625 0.458908C1.34172 0.254691 1.55077 0.126267 1.77741 0.101888C2.00404 0.077508 2.22969 0.159169 2.40472 0.328908L6.99862 4.80891L11.5925 0.488909C11.6802 0.405843 11.7811 0.343811 11.8893 0.306379C11.9976 0.268948 12.1112 0.256854 12.2235 0.270793C12.3358 0.284732 12.4446 0.324429 12.5437 0.387603C12.6428 0.450777 12.7303 0.536182 12.801 0.638908C12.8795 0.74173 12.9389 0.862356 12.9756 0.99323C13.0123 1.1241 13.0254 1.2624 13.0141 1.39947C13.0029 1.53653 12.9675 1.6694 12.9101 1.78976C12.8528 1.91012 12.7748 2.01536 12.681 2.09891L7.53858 6.92891C7.37994 7.05442 7.18983 7.11428 6.99862 7.09891Z" fill="#F6F6F6"/>
</svg>
